# Blender v2.82 (sub 7) OBJ File: 'rock.blend'
# www.blender.org
mtllib rock.mtl
o Icosphere.004
v 0.793258 -0.540767 0.464583
v 1.113129 -0.131829 0.889157
v 0.518733 -0.145979 1.097199
v 0.152048 -0.197520 0.538580
v 0.527626 -0.210245 -0.028113
v 1.147918 -0.188598 0.193035
v 0.859039 0.379025 1.103201
v 0.247582 0.385682 0.888717
v 0.216908 0.337333 0.182044
v 0.862261 0.392346 -0.040686
v 1.284444 0.310416 0.605932
v 0.707010 0.777591 0.542163
v 0.595650 -0.439990 0.881691
v 1.025703 -0.406321 0.760207
v 0.896034 -0.257324 1.074086
v 1.279509 -0.210843 0.514445
v 1.017222 -0.552098 0.362597
v 0.460048 -0.396740 0.564869
v 0.272657 -0.253829 0.861000
v 0.583949 -0.442489 0.252200
v 0.284298 -0.292763 0.224944
v 0.871248 -0.271768 0.008296
v 1.346408 0.088274 0.745784
v 1.276669 0.060655 0.358348
v 0.675963 0.059861 1.166353
v 1.092593 0.093002 1.017709
v -0.004971 0.115761 0.702825
v 0.317286 0.072014 1.074170
v 0.331757 0.151901 0.084263
v 0.105739 0.114700 0.312078
v 1.111558 0.077726 0.038200
v 0.695248 0.107351 -0.198972
v 1.078854 0.410776 0.893793
v 0.551126 0.433930 1.071151
v 0.169509 0.432083 0.543570
v 0.591046 0.401551 0.048671
v 1.048993 0.460194 0.231812
v 0.792930 0.662272 0.804348
v 1.028950 0.604072 0.537509
v 0.451254 0.638353 0.782971
v 0.381272 0.568694 0.412461
v 0.838686 0.656035 0.212555
v -0.142489 0.032801 -0.410895
v 0.093018 0.697146 0.062153
v -0.927862 0.501045 -0.227713
v -0.823187 -0.185721 -1.145421
v 0.262417 -0.290370 -1.544341
v 0.838998 0.181649 -0.705559
v -0.407330 1.014892 -0.393009
v -1.110561 0.568392 -1.175024
v -0.315216 0.072774 -1.786314
v 0.788954 0.261187 -1.523357
v 0.598675 1.048072 -0.380081
v -0.067250 0.914618 -1.023061
v -0.549582 0.164610 -0.322386
v -0.082996 0.325487 -0.000819
v -0.596361 0.676682 0.095238
v 0.627563 0.351201 -0.192026
v 0.507642 0.031172 -0.609902
v -0.425030 -0.255723 -0.824766
v -1.130861 0.009373 -0.843001
v 0.151846 -0.310811 -1.052068
v -0.295257 -0.408981 -1.506949
v 0.659597 -0.141709 -1.129961
v 0.427756 0.981027 -0.172563
v 1.040480 0.653249 -0.579466
v -0.863632 0.814520 -0.221782
v -0.171579 1.000018 0.023168
v -1.019954 0.218135 -1.161559
v -1.245726 0.576676 -0.623467
v -0.037337 -0.215321 -1.772365
v -0.570372 -0.142232 -1.606985
v 0.832251 0.191680 -1.131080
v 0.511035 -0.152492 -1.563186
v 0.106902 1.141065 -0.294362
v -0.873996 0.923489 -0.606555
v -0.796539 0.332661 -1.501296
v 0.220593 0.152989 -1.757589
v 0.757209 0.717959 -0.955234
v -0.307301 1.088398 -0.727066
v 0.330882 0.986991 -0.751303
v -0.772322 0.870281 -1.058232
v -0.266545 0.437960 -1.618268
v 0.493048 0.554148 -1.471756
v -0.135264 -0.437610 0.205704
v 0.165749 0.272539 0.885166
v -0.434635 -0.300589 1.378219
v -1.138253 -0.580519 0.684216
v -0.974213 -0.164911 -0.257288
v -0.119397 0.360704 -0.144204
v -0.420943 0.649647 1.506344
v -1.283196 0.165816 1.412451
v -1.659958 0.209507 0.394177
v -1.036857 0.880682 -0.118855
v -0.116480 1.025989 0.621664
v -1.210523 1.118735 0.937731
v -0.230390 -0.560839 0.912822
v 0.201487 -0.122296 0.607992
v 0.096876 -0.107146 1.166462
v 0.228829 0.387932 0.258899
v 0.091170 -0.238093 -0.021184
v -0.597163 -0.566184 0.527058
v -0.776688 -0.605552 1.077212
v -0.578158 -0.457689 0.018647
v -1.071633 -0.526366 0.149350
v -0.490136 0.050422 -0.350351
v 0.203818 0.776712 0.700047
v -0.066181 0.753249 0.159344
v -0.364747 0.080320 1.515519
v 0.036753 0.511555 1.176332
v -1.481920 -0.356400 1.112564
v -0.858946 -0.199418 1.512073
v -1.430224 0.096010 0.132353
v -1.554847 -0.189151 0.517460
v -0.450486 0.690175 -0.232840
v -1.105380 0.408940 -0.415377
v -0.289864 0.919205 1.147138
v -0.854238 0.456305 1.590456
v -1.597595 0.219680 0.968097
v -1.325793 0.639752 0.105214
v -0.716854 1.077380 0.236178
v -0.877912 1.001011 1.230234
v -0.688715 1.183001 0.743262
v -1.286039 0.677933 1.305686
v -1.515048 0.598648 0.770308
v -1.132918 1.142494 0.368484
vt 0.818181 0.000000
vt 0.772726 0.078731
vt 0.863635 0.078731
vt 0.727272 0.157461
vt 0.681818 0.078731
vt 0.636363 0.157461
vt 0.090909 0.000000
vt 0.045454 0.078731
vt 0.136363 0.078731
vt 0.272727 0.000000
vt 0.227273 0.078731
vt 0.318182 0.078731
vt 0.454545 0.000000
vt 0.409090 0.078731
vt 0.500000 0.078731
vt 0.681818 0.236191
vt 0.909090 0.157461
vt 0.818181 0.157461
vt 0.863635 0.236191
vt 0.181818 0.157461
vt 0.090909 0.157461
vt 0.136363 0.236191
vt 0.363636 0.157461
vt 0.272727 0.157461
vt 0.318182 0.236191
vt 0.545454 0.157461
vt 0.454545 0.157461
vt 0.500000 0.236191
vt 0.772726 0.236191
vt 0.954545 0.236191
vt 0.227273 0.236191
vt 0.409090 0.236191
vt 0.590909 0.236191
vt 0.818181 0.314921
vt 0.727272 0.314921
vt 0.772726 0.393651
vt 1.000000 0.314921
vt 0.909091 0.314921
vt 0.954545 0.393651
vt 0.272727 0.314921
vt 0.181818 0.314921
vt 0.227273 0.393651
vt 0.454545 0.314921
vt 0.363636 0.314921
vt 0.409090 0.393651
vt 0.636363 0.314921
vt 0.545454 0.314921
vt 0.590909 0.393651
vt 0.500000 0.393651
vt 0.545454 0.472382
vt 0.318182 0.393651
vt 0.363636 0.472382
vt 0.136363 0.393651
vt 0.181818 0.472382
vt 0.090909 0.314921
vt 0.863635 0.393651
vt 0.909090 0.472382
vt 0.681818 0.393651
vt 0.727272 0.472382
vt 0.045454 0.236191
vt 0.000000 0.157461
vt 0.590909 0.078731
vt 0.636363 0.000000
vt 0.818181 0.000000
vt 0.772726 0.078731
vt 0.863635 0.078731
vt 0.727272 0.157461
vt 0.681818 0.078731
vt 0.636363 0.157461
vt 0.090909 0.000000
vt 0.045454 0.078731
vt 0.136363 0.078731
vt 0.272727 0.000000
vt 0.227273 0.078731
vt 0.318182 0.078731
vt 0.454545 0.000000
vt 0.409090 0.078731
vt 0.500000 0.078731
vt 0.681818 0.236191
vt 0.909090 0.157461
vt 0.818181 0.157461
vt 0.863635 0.236191
vt 0.181818 0.157461
vt 0.090909 0.157461
vt 0.136363 0.236191
vt 0.363636 0.157461
vt 0.272727 0.157461
vt 0.318182 0.236191
vt 0.545454 0.157461
vt 0.454545 0.157461
vt 0.500000 0.236191
vt 0.772726 0.236191
vt 0.954545 0.236191
vt 0.227273 0.236191
vt 0.409090 0.236191
vt 0.590909 0.236191
vt 0.818181 0.314921
vt 0.727272 0.314921
vt 0.772726 0.393651
vt 1.000000 0.314921
vt 0.909091 0.314921
vt 0.954545 0.393651
vt 0.272727 0.314921
vt 0.181818 0.314921
vt 0.227273 0.393651
vt 0.454545 0.314921
vt 0.363636 0.314921
vt 0.409090 0.393651
vt 0.636363 0.314921
vt 0.545454 0.314921
vt 0.590909 0.393651
vt 0.500000 0.393651
vt 0.545454 0.472382
vt 0.318182 0.393651
vt 0.363636 0.472382
vt 0.136363 0.393651
vt 0.181818 0.472382
vt 0.090909 0.314921
vt 0.863635 0.393651
vt 0.909090 0.472382
vt 0.681818 0.393651
vt 0.727272 0.472382
vt 0.045454 0.236191
vt 0.000000 0.157461
vt 0.590909 0.078731
vt 0.636363 0.000000
vt 0.818181 0.000000
vt 0.772726 0.078731
vt 0.863635 0.078731
vt 0.727272 0.157461
vt 0.681818 0.078731
vt 0.636363 0.157461
vt 0.090909 0.000000
vt 0.045454 0.078731
vt 0.136363 0.078731
vt 0.272727 0.000000
vt 0.227273 0.078731
vt 0.318182 0.078731
vt 0.454545 0.000000
vt 0.409090 0.078731
vt 0.500000 0.078731
vt 0.681818 0.236191
vt 0.909090 0.157461
vt 0.818181 0.157461
vt 0.863635 0.236191
vt 0.181818 0.157461
vt 0.090909 0.157461
vt 0.136363 0.236191
vt 0.363636 0.157461
vt 0.272727 0.157461
vt 0.318182 0.236191
vt 0.545454 0.157461
vt 0.454545 0.157461
vt 0.500000 0.236191
vt 0.772726 0.236191
vt 0.954545 0.236191
vt 0.227273 0.236191
vt 0.409090 0.236191
vt 0.590909 0.236191
vt 0.818181 0.314921
vt 0.727272 0.314921
vt 0.772726 0.393651
vt 1.000000 0.314921
vt 0.909091 0.314921
vt 0.954545 0.393651
vt 0.272727 0.314921
vt 0.181818 0.314921
vt 0.227273 0.393651
vt 0.454545 0.314921
vt 0.363636 0.314921
vt 0.409090 0.393651
vt 0.636363 0.314921
vt 0.545454 0.314921
vt 0.590909 0.393651
vt 0.500000 0.393651
vt 0.545454 0.472382
vt 0.318182 0.393651
vt 0.363636 0.472382
vt 0.136363 0.393651
vt 0.181818 0.472382
vt 0.090909 0.314921
vt 0.863635 0.393651
vt 0.909090 0.472382
vt 0.681818 0.393651
vt 0.727272 0.472382
vt 0.045454 0.236191
vt 0.000000 0.157461
vt 0.590909 0.078731
vt 0.636363 0.000000
vn 0.1590 -0.9398 0.3024
vn 0.7752 -0.4535 0.4398
vn -0.3864 -0.9215 0.0396
vn -0.4032 -0.9147 -0.0259
vn -0.1709 -0.9476 -0.2700
vn 0.7446 -0.5045 0.4370
vn -0.0295 -0.2980 0.9541
vn -0.8228 -0.5256 0.2160
vn -0.6874 -0.1514 -0.7103
vn 0.5908 -0.3437 -0.7300
vn 0.6925 -0.3094 0.6517
vn -0.2509 -0.1306 0.9592
vn -0.9112 -0.3218 -0.2573
vn -0.6190 -0.0928 -0.7799
vn 0.8758 -0.1476 -0.4596
vn 0.4378 0.6989 0.5656
vn -0.4695 0.6352 0.6133
vn -0.6351 0.7227 -0.2727
vn -0.2127 0.6669 -0.7142
vn 0.7597 0.6061 -0.2355
vn 0.4686 0.8731 -0.1348
vn 0.6677 0.6895 -0.2807
vn 0.5945 0.5840 -0.5528
vn -0.3515 0.8240 -0.4443
vn -0.3846 0.7344 -0.5592
vn -0.3265 0.7733 -0.5435
vn -0.5213 0.8511 -0.0616
vn -0.5626 0.8253 -0.0489
vn -0.7007 0.6688 0.2484
vn -0.0897 0.9005 0.4255
vn -0.0931 0.7966 0.5973
vn 0.0596 0.7311 0.6797
vn 0.4649 0.8565 0.2244
vn 0.5623 0.7573 0.3321
vn 0.6962 0.6673 0.2645
vn 0.8478 0.3598 -0.3896
vn 0.8408 0.3476 -0.4151
vn 0.7017 0.4098 -0.5829
vn -0.2385 0.5746 -0.7829
vn -0.5197 0.4349 -0.7354
vn -0.3628 0.2488 -0.8980
vn -0.9182 0.3367 -0.2086
vn -0.8953 0.3656 -0.2546
vn -0.7873 0.5620 0.2536
vn -0.5232 0.3446 0.7794
vn -0.2404 0.1633 0.9568
vn -0.0607 0.2271 0.9720
vn 0.6335 0.3047 0.7112
vn 0.7033 0.2845 0.6515
vn 0.7874 0.4704 0.3984
vn 0.4965 0.1806 -0.8490
vn 0.4662 -0.2479 -0.8493
vn 0.0077 -0.4769 -0.8789
vn -0.7034 -0.0623 -0.7080
vn -0.6894 -0.1506 -0.7086
vn -0.9003 -0.3351 -0.2779
vn -0.7224 0.2259 0.6535
vn -0.7385 -0.2954 0.6061
vn -0.5305 -0.4120 0.7408
vn 0.3365 -0.0067 0.9417
vn 0.3385 -0.0386 0.9402
vn 0.7129 -0.2979 0.6348
vn 0.9705 0.1538 -0.1857
vn 0.9815 -0.0877 -0.1704
vn 0.8995 -0.2107 -0.3828
vn 0.5790 -0.5063 -0.6391
vn -0.0455 -0.7924 -0.6083
vn -0.0723 -0.7751 -0.6277
vn -0.3279 -0.7588 -0.5628
vn -0.4433 -0.8953 -0.0447
vn -0.5444 -0.8384 0.0250
vn -0.5457 -0.8360 0.0581
vn -0.5017 -0.8596 0.0974
vn -0.3946 -0.6081 0.6888
vn 0.8098 -0.4607 -0.3634
vn 0.7217 -0.6547 0.2246
vn 0.1077 -0.9342 0.3402
vn -0.1315 -0.6082 0.7828
vn 0.2041 -0.8490 0.4874
vn 0.7138 -0.4709 0.5184
vn -0.1304 -0.7979 0.5884
vn 0.2589 -0.2793 0.9246
vn -0.1163 -0.7758 0.6202
vn 0.1202 -0.8510 0.5112
vn 0.1576 -0.8385 0.5217
vn 0.4931 0.1298 0.8602
vn -0.7274 0.1363 0.6725
vn -0.7593 -0.3907 -0.5204
vn 0.1511 -0.8627 -0.4826
vn 0.8877 -0.4598 -0.0249
vn 0.2986 0.3739 0.8781
vn -0.7581 0.1433 0.6362
vn -0.7866 -0.4020 -0.4687
vn 0.3279 -0.6807 -0.6551
vn 0.9216 -0.3874 -0.0237
vn -0.2601 0.9564 0.1326
vn -0.6041 0.7642 -0.2260
vn -0.2754 0.4319 -0.8589
vn 0.2735 0.4280 -0.8614
vn 0.3494 0.8510 -0.3921
vn 0.1704 0.8611 -0.4790
vn 0.3240 0.8414 -0.4326
vn 0.5649 0.6582 -0.4976
vn 0.0013 0.7803 -0.6253
vn 0.0783 0.5427 -0.8363
vn -0.0141 0.4195 -0.9076
vn -0.0183 0.7834 -0.6212
vn -0.2845 0.6173 -0.7335
vn -0.2969 0.6152 -0.7303
vn -0.0275 0.8521 -0.5226
vn -0.3099 0.9336 -0.1797
vn -0.2500 0.9586 0.1361
vn 0.1264 0.8968 -0.4240
vn 0.1425 0.9570 -0.2528
vn 0.1364 0.9570 -0.2559
vn 0.5616 0.7749 -0.2900
vn 0.7870 0.2935 -0.5427
vn 0.9829 0.1665 -0.0790
vn 0.4044 -0.1855 -0.8956
vn 0.3696 -0.2227 -0.9021
vn 0.0531 0.0029 -0.9986
vn -0.5351 -0.0674 -0.8421
vn -0.7730 -0.2372 -0.5883
vn -0.7780 -0.2238 -0.5871
vn -0.6675 0.7239 -0.1744
vn -0.6710 0.7085 0.2187
vn -0.3016 0.9152 0.2673
vn -0.2676 0.9455 0.1854
vn 0.2023 0.8168 0.5403
vn 0.2426 0.8468 0.4734
vn 0.8238 -0.5356 -0.1858
vn 0.8518 -0.4421 -0.2811
vn 0.4721 -0.8704 -0.1402
vn -0.3211 -0.3522 -0.8791
vn -0.3112 -0.5979 -0.7387
vn -0.5688 -0.7293 -0.3803
vn -0.9408 -0.2521 -0.2268
vn -0.9325 -0.0504 -0.3577
vn -0.7592 -0.3628 0.5404
vn -0.3234 0.9212 0.2161
vn -0.4010 0.6669 0.6281
vn 0.0424 0.1639 0.9856
vn 0.6450 0.3899 0.6572
vn 0.6062 0.1683 0.7773
vn 0.7636 -0.4500 0.4630
vn 0.4722 -0.7859 0.3992
vn 0.3442 -0.8562 0.3852
vn 0.3203 -0.9467 0.0326
vn 0.2084 -0.9780 0.0062
vn -0.0074 -0.9760 0.2179
vn -0.2919 -0.9436 0.1565
vn -0.3472 -0.9084 0.2328
vn -0.3025 -0.7666 0.5664
vn -0.4090 -0.6423 0.6482
vn 0.4736 -0.7596 0.4458
vn 0.1811 -0.8052 0.5647
vn 0.1683 -0.8137 0.5564
vn -0.3646 -0.6083 0.7050
vn -0.2883 -0.6209 0.7290
vn 0.0527 -0.1910 0.9802
vn 0.7018 -0.7117 -0.0296
vn 0.9945 0.0174 0.1034
vn 0.1689 -0.9746 -0.1471
vn 0.1295 -0.9707 -0.2023
vn 0.2451 -0.8362 -0.4906
vn 0.9949 -0.0411 0.0926
vn 0.4576 -0.3746 0.8064
vn -0.3139 -0.9211 0.2301
vn -0.7161 -0.4276 -0.5517
vn 0.3866 0.1434 -0.9110
vn 0.9305 0.0623 0.3611
vn 0.2000 -0.3645 0.9095
vn -0.6506 -0.7481 -0.1305
vn -0.7154 -0.3328 -0.6144
vn 0.6083 0.4323 -0.6656
vn 0.1937 0.7494 0.6331
vn -0.4770 0.1768 0.8609
vn -0.9601 0.2612 0.0997
vn -0.7509 0.5087 -0.4213
vn 0.2168 0.9532 -0.2106
vn -0.1126 0.9933 0.0261
vn 0.0864 0.9744 -0.2077
vn -0.0135 0.8797 -0.4753
vn -0.8458 0.5253 -0.0934
vn -0.8671 0.4474 -0.2191
vn -0.8350 0.5101 -0.2061
vn -0.8609 0.4048 0.3083
vn -0.8762 0.3588 0.3217
vn -0.8040 0.1171 0.5830
vn -0.3741 0.6312 0.6794
vn -0.2650 0.5238 0.8095
vn -0.0825 0.5472 0.8329
vn 0.0176 0.9343 0.3560
vn 0.1819 0.8958 0.4055
vn 0.3096 0.9067 0.2864
vn 0.3564 0.8212 -0.4457
vn 0.3480 0.8104 -0.4714
vn 0.1483 0.8023 -0.5782
vn -0.7490 0.4272 -0.5065
vn -0.8854 0.1481 -0.4405
vn -0.7245 0.1051 -0.6812
vn -0.9690 -0.2217 0.1092
vn -0.9813 -0.1795 0.0698
vn -0.8173 -0.0197 0.5759
vn -0.3163 -0.1104 0.9422
vn 0.0604 -0.1189 0.9911
vn 0.1761 0.0332 0.9838
vn 0.5969 0.5219 0.6094
vn 0.6416 0.5522 0.5324
vn 0.5271 0.7819 0.3328
vn 0.0079 0.5313 -0.8471
vn 0.1984 0.1652 -0.9661
vn -0.0607 -0.2780 -0.9587
vn -0.7726 -0.3645 -0.5199
vn -0.7174 -0.4284 -0.5494
vn -0.6424 -0.7503 -0.1560
vn -0.4585 -0.3049 0.8348
vn -0.2267 -0.7328 0.6415
vn 0.0434 -0.7260 0.6863
vn 0.5975 0.0718 0.7986
vn 0.6146 0.0472 0.7874
vn 0.9350 0.0854 0.3442
vn 0.6277 0.6984 -0.3437
vn 0.7626 0.5061 -0.4028
vn 0.6854 0.3850 -0.6181
vn 0.4902 -0.0067 -0.8716
vn 0.1493 -0.5978 -0.7876
vn 0.1126 -0.5966 -0.7946
vn -0.0757 -0.7362 -0.6725
vn 0.0814 -0.9753 -0.2051
vn -0.0030 -0.9949 -0.1011
vn 0.0063 -0.9976 -0.0693
vn 0.0667 -0.9965 -0.0496
vn 0.2312 -0.8024 0.5502
vn 0.7462 0.1282 -0.6533
vn 0.9781 -0.1508 -0.1437
vn 0.6714 -0.7408 0.0186
vn 0.4725 -0.6645 0.5790
vn 0.7564 -0.6345 0.1589
vn 0.9819 -0.0410 0.1850
usemtl None
s off
f 1/1/1 14/2/1 13/3/1
f 2/4/2 14/5/2 16/6/2
f 1/7/3 13/8/3 18/9/3
f 1/10/4 18/11/4 20/12/4
f 1/13/5 20/14/5 17/15/5
f 2/4/6 16/6/6 23/16/6
f 3/17/7 15/18/7 25/19/7
f 4/20/8 19/21/8 27/22/8
f 5/23/9 21/24/9 29/25/9
f 6/26/10 22/27/10 31/28/10
f 2/4/11 23/16/11 26/29/11
f 3/17/12 25/19/12 28/30/12
f 4/20/13 27/22/13 30/31/13
f 5/23/14 29/25/14 32/32/14
f 6/26/15 31/28/15 24/33/15
f 7/34/16 33/35/16 38/36/16
f 8/37/17 34/38/17 40/39/17
f 9/40/18 35/41/18 41/42/18
f 10/43/19 36/44/19 42/45/19
f 11/46/20 37/47/20 39/48/20
f 39/48/21 42/49/21 12/50/21
f 39/48/22 37/47/22 42/49/22
f 37/47/23 10/43/23 42/49/23
f 42/45/24 41/51/24 12/52/24
f 42/45/25 36/44/25 41/51/25
f 36/44/26 9/40/26 41/51/26
f 41/42/27 40/53/27 12/54/27
f 41/42/28 35/41/28 40/53/28
f 35/41/29 8/55/29 40/53/29
f 40/39/30 38/56/30 12/57/30
f 40/39/31 34/38/31 38/56/31
f 34/38/32 7/34/32 38/56/32
f 38/36/33 39/58/33 12/59/33
f 38/36/34 33/35/34 39/58/34
f 33/35/35 11/46/35 39/58/35
f 24/33/36 37/47/36 11/46/36
f 24/33/37 31/28/37 37/47/37
f 31/28/38 10/43/38 37/47/38
f 32/32/39 36/44/39 10/43/39
f 32/32/40 29/25/40 36/44/40
f 29/25/41 9/40/41 36/44/41
f 30/31/42 35/41/42 9/40/42
f 30/31/43 27/22/43 35/41/43
f 27/22/44 8/55/44 35/41/44
f 28/30/45 34/38/45 8/37/45
f 28/30/46 25/19/46 34/38/46
f 25/19/47 7/34/47 34/38/47
f 26/29/48 33/35/48 7/34/48
f 26/29/49 23/16/49 33/35/49
f 23/16/50 11/46/50 33/35/50
f 31/28/51 32/32/51 10/43/51
f 31/28/52 22/27/52 32/32/52
f 22/27/53 5/23/53 32/32/53
f 29/25/54 30/31/54 9/40/54
f 29/25/55 21/24/55 30/31/55
f 21/24/56 4/20/56 30/31/56
f 27/22/57 28/60/57 8/55/57
f 27/22/58 19/21/58 28/60/58
f 19/21/59 3/61/59 28/60/59
f 25/19/60 26/29/60 7/34/60
f 25/19/61 15/18/61 26/29/61
f 15/18/62 2/4/62 26/29/62
f 23/16/63 24/33/63 11/46/63
f 23/16/64 16/6/64 24/33/64
f 16/6/65 6/26/65 24/33/65
f 17/15/66 22/27/66 6/26/66
f 17/15/67 20/14/67 22/27/67
f 20/14/68 5/23/68 22/27/68
f 20/12/69 21/24/69 5/23/69
f 20/12/70 18/11/70 21/24/70
f 18/11/71 4/20/71 21/24/71
f 18/9/72 19/21/72 4/20/72
f 18/9/73 13/8/73 19/21/73
f 13/8/74 3/61/74 19/21/74
f 16/6/75 17/62/75 6/26/75
f 16/6/76 14/5/76 17/62/76
f 14/5/77 1/63/77 17/62/77
f 13/3/78 15/18/78 3/17/78
f 13/3/79 14/2/79 15/18/79
f 14/2/80 2/4/80 15/18/80
f 43/64/81 56/65/81 55/66/81
f 44/67/82 56/68/82 58/69/82
f 43/70/83 55/71/83 60/72/83
f 43/73/84 60/74/84 62/75/84
f 43/76/85 62/77/85 59/78/85
f 44/67/86 58/69/86 65/79/86
f 45/80/87 57/81/87 67/82/87
f 46/83/88 61/84/88 69/85/88
f 47/86/89 63/87/89 71/88/89
f 48/89/90 64/90/90 73/91/90
f 44/67/91 65/79/91 68/92/91
f 45/80/92 67/82/92 70/93/92
f 46/83/93 69/85/93 72/94/93
f 47/86/94 71/88/94 74/95/94
f 48/89/95 73/91/95 66/96/95
f 49/97/96 75/98/96 80/99/96
f 50/100/97 76/101/97 82/102/97
f 51/103/98 77/104/98 83/105/98
f 52/106/99 78/107/99 84/108/99
f 53/109/100 79/110/100 81/111/100
f 81/111/101 84/112/101 54/113/101
f 81/111/102 79/110/102 84/112/102
f 79/110/103 52/106/103 84/112/103
f 84/108/104 83/114/104 54/115/104
f 84/108/105 78/107/105 83/114/105
f 78/107/106 51/103/106 83/114/106
f 83/105/107 82/116/107 54/117/107
f 83/105/108 77/104/108 82/116/108
f 77/104/109 50/118/109 82/116/109
f 82/102/110 80/119/110 54/120/110
f 82/102/111 76/101/111 80/119/111
f 76/101/112 49/97/112 80/119/112
f 80/99/113 81/121/113 54/122/113
f 80/99/114 75/98/114 81/121/114
f 75/98/115 53/109/115 81/121/115
f 66/96/116 79/110/116 53/109/116
f 66/96/117 73/91/117 79/110/117
f 73/91/118 52/106/118 79/110/118
f 74/95/119 78/107/119 52/106/119
f 74/95/120 71/88/120 78/107/120
f 71/88/121 51/103/121 78/107/121
f 72/94/122 77/104/122 51/103/122
f 72/94/123 69/85/123 77/104/123
f 69/85/124 50/118/124 77/104/124
f 70/93/125 76/101/125 50/100/125
f 70/93/126 67/82/126 76/101/126
f 67/82/127 49/97/127 76/101/127
f 68/92/128 75/98/128 49/97/128
f 68/92/129 65/79/129 75/98/129
f 65/79/130 53/109/130 75/98/130
f 73/91/131 74/95/131 52/106/131
f 73/91/132 64/90/132 74/95/132
f 64/90/133 47/86/133 74/95/133
f 71/88/134 72/94/134 51/103/134
f 71/88/135 63/87/135 72/94/135
f 63/87/136 46/83/136 72/94/136
f 69/85/137 70/123/137 50/118/137
f 69/85/138 61/84/138 70/123/138
f 61/84/139 45/124/139 70/123/139
f 67/82/140 68/92/140 49/97/140
f 67/82/141 57/81/141 68/92/141
f 57/81/142 44/67/142 68/92/142
f 65/79/143 66/96/143 53/109/143
f 65/79/144 58/69/144 66/96/144
f 58/69/145 48/89/145 66/96/145
f 59/78/146 64/90/146 48/89/146
f 59/78/147 62/77/147 64/90/147
f 62/77/148 47/86/148 64/90/148
f 62/75/149 63/87/149 47/86/149
f 62/75/150 60/74/150 63/87/150
f 60/74/151 46/83/151 63/87/151
f 60/72/152 61/84/152 46/83/152
f 60/72/153 55/71/153 61/84/153
f 55/71/154 45/124/154 61/84/154
f 58/69/155 59/125/155 48/89/155
f 58/69/156 56/68/156 59/125/156
f 56/68/157 43/126/157 59/125/157
f 55/66/158 57/81/158 45/80/158
f 55/66/159 56/65/159 57/81/159
f 56/65/160 44/67/160 57/81/160
f 85/127/161 98/128/161 97/129/161
f 86/130/162 98/131/162 100/132/162
f 85/133/163 97/134/163 102/135/163
f 85/136/164 102/137/164 104/138/164
f 85/139/165 104/140/165 101/141/165
f 86/130/166 100/132/166 107/142/166
f 87/143/167 99/144/167 109/145/167
f 88/146/168 103/147/168 111/148/168
f 89/149/169 105/150/169 113/151/169
f 90/152/170 106/153/170 115/154/170
f 86/130/171 107/142/171 110/155/171
f 87/143/172 109/145/172 112/156/172
f 88/146/173 111/148/173 114/157/173
f 89/149/174 113/151/174 116/158/174
f 90/152/175 115/154/175 108/159/175
f 91/160/176 117/161/176 122/162/176
f 92/163/177 118/164/177 124/165/177
f 93/166/178 119/167/178 125/168/178
f 94/169/179 120/170/179 126/171/179
f 95/172/180 121/173/180 123/174/180
f 123/174/181 126/175/181 96/176/181
f 123/174/182 121/173/182 126/175/182
f 121/173/183 94/169/183 126/175/183
f 126/171/184 125/177/184 96/178/184
f 126/171/185 120/170/185 125/177/185
f 120/170/186 93/166/186 125/177/186
f 125/168/187 124/179/187 96/180/187
f 125/168/188 119/167/188 124/179/188
f 119/167/189 92/181/189 124/179/189
f 124/165/190 122/182/190 96/183/190
f 124/165/191 118/164/191 122/182/191
f 118/164/192 91/160/192 122/182/192
f 122/162/193 123/184/193 96/185/193
f 122/162/194 117/161/194 123/184/194
f 117/161/195 95/172/195 123/184/195
f 108/159/196 121/173/196 95/172/196
f 108/159/197 115/154/197 121/173/197
f 115/154/198 94/169/198 121/173/198
f 116/158/199 120/170/199 94/169/199
f 116/158/200 113/151/200 120/170/200
f 113/151/201 93/166/201 120/170/201
f 114/157/202 119/167/202 93/166/202
f 114/157/203 111/148/203 119/167/203
f 111/148/204 92/181/204 119/167/204
f 112/156/205 118/164/205 92/163/205
f 112/156/206 109/145/206 118/164/206
f 109/145/207 91/160/207 118/164/207
f 110/155/208 117/161/208 91/160/208
f 110/155/209 107/142/209 117/161/209
f 107/142/210 95/172/210 117/161/210
f 115/154/211 116/158/211 94/169/211
f 115/154/212 106/153/212 116/158/212
f 106/153/213 89/149/213 116/158/213
f 113/151/214 114/157/214 93/166/214
f 113/151/215 105/150/215 114/157/215
f 105/150/216 88/146/216 114/157/216
f 111/148/217 112/186/217 92/181/217
f 111/148/218 103/147/218 112/186/218
f 103/147/219 87/187/219 112/186/219
f 109/145/220 110/155/220 91/160/220
f 109/145/221 99/144/221 110/155/221
f 99/144/222 86/130/222 110/155/222
f 107/142/223 108/159/223 95/172/223
f 107/142/224 100/132/224 108/159/224
f 100/132/225 90/152/225 108/159/225
f 101/141/226 106/153/226 90/152/226
f 101/141/227 104/140/227 106/153/227
f 104/140/228 89/149/228 106/153/228
f 104/138/229 105/150/229 89/149/229
f 104/138/230 102/137/230 105/150/230
f 102/137/231 88/146/231 105/150/231
f 102/135/232 103/147/232 88/146/232
f 102/135/233 97/134/233 103/147/233
f 97/134/234 87/187/234 103/147/234
f 100/132/235 101/188/235 90/152/235
f 100/132/236 98/131/236 101/188/236
f 98/131/237 85/189/237 101/188/237
f 97/129/238 99/144/238 87/143/238
f 97/129/239 98/128/239 99/144/239
f 98/128/240 86/130/240 99/144/240
