{
    "asset" : {
        "generator" : "Khronos glTF Blender I/O v1.1.46",
        "version" : "2.0"
    },
    "scene" : 0,
    "scenes" : [
        {
            "name" : "Scene",
            "nodes" : [
                0,
                1,
                2
            ]
        }
    ],
    "nodes" : [
        {
            "mesh" : 0,
            "name" : "Plane"
        },
        {
            "name" : "Sun",
            "rotation" : [
                0.3876904845237732,
                -0.2470216155052185,
                0.0329311303794384,
                0.8874637484550476
            ],
            "translation" : [
                17.348600387573242,
                26.39636993408203,
                22.41309356689453
            ]
        },
        {
            "name" : "Camera",
            "rotation" : [
                0.59171462059021,
                -0.3188129663467407,
                0.269692987203598,
                0.6895634531974792
            ],
            "translation" : [
                -29.91192054748535,
                10.186742782592773,
                23.649194717407227
            ]
        }
    ],
    "materials" : [
        {
            "doubleSided" : true,
            "emissiveFactor" : [
                0,
                0,
                0
            ],
            "name" : "sakura-1",
            "pbrMetallicRoughness" : {
                "baseColorTexture" : {
                    "index" : 0,
                    "texCoord" : 0
                },
                "metallicFactor" : 0,
                "roughnessFactor" : 1
            }
        }
    ],
    "meshes" : [
        {
            "name" : "Plane",
            "primitives" : [
                {
                    "attributes" : {
                        "POSITION" : 0,
                        "NORMAL" : 1,
                        "TEXCOORD_0" : 2
                    },
                    "indices" : 3,
                    "material" : 0
                }
            ]
        }
    ],
    "textures" : [
        {
            "sampler" : 0,
            "source" : 0
        }
    ],
    "images" : [
        {
            "mimeType" : "image/png",
            "name" : "Untitled",
            "uri" : "Tx-Sakura-1/Untitled.png"
        }
    ],
    "accessors" : [
        {
            "bufferView" : 0,
            "componentType" : 5126,
            "count" : 12176,
            "max" : [
                3.8404622077941895,
                11.052227973937988,
                5.615234375
            ],
            "min" : [
                -4.879034042358398,
                0.003983315080404282,
                -3.376197099685669
            ],
            "type" : "VEC3"
        },
        {
            "bufferView" : 1,
            "componentType" : 5126,
            "count" : 12176,
            "type" : "VEC3"
        },
        {
            "bufferView" : 2,
            "componentType" : 5126,
            "count" : 12176,
            "type" : "VEC2"
        },
        {
            "bufferView" : 3,
            "componentType" : 5123,
            "count" : 15984,
            "type" : "SCALAR"
        }
    ],
    "bufferViews" : [
        {
            "buffer" : 0,
            "byteLength" : 146112,
            "byteOffset" : 0
        },
        {
            "buffer" : 0,
            "byteLength" : 146112,
            "byteOffset" : 146112
        },
        {
            "buffer" : 0,
            "byteLength" : 97408,
            "byteOffset" : 292224
        },
        {
            "buffer" : 0,
            "byteLength" : 31968,
            "byteOffset" : 389632
        }
    ],
    "samplers" : [
        {
            "magFilter" : 9728,
            "minFilter" : 9984
        }
    ],
    "buffers" : [
        {
            "byteLength" : 421600,
            "uri" : "Sakura-1.bin"
        }
    ]
}
